<svg width="24" height="24" viewBox="0 0 24 24" fill="none" xmlns="http://www.w3.org/2000/svg">
<path d="M3.01001 11.22V15.71C3.01001 20.2 4.81001 22 9.30001 22M20.98 14V11.22" stroke="#292D32" stroke-width="1.5" stroke-linecap="round" stroke-linejoin="round"/>
<path d="M12 12C13.83 12 15.18 10.51 15 8.68L14.34 2H9.66999L8.99999 8.68C8.81999 10.51 10.17 12 12 12Z" stroke="#292D32" stroke-width="1.5" stroke-linecap="round" stroke-linejoin="round"/>
<path d="M18.31 12C20.33 12 21.81 10.36 21.61 8.35L21.33 5.6C20.97 3 19.97 2 17.35 2H14.3L15 9.01C15.17 10.66 16.66 12 18.31 12Z" stroke="#292D32" stroke-width="1.5" stroke-linecap="round" stroke-linejoin="round"/>
<path d="M5.63988 12C7.28988 12 8.77988 10.66 8.93988 9.01L9.15988 6.8L9.63988 2H6.58988C3.96988 2 2.96988 3 2.60988 5.6L2.33988 8.35C2.13988 10.36 3.61988 12 5.63988 12Z" stroke="#292D32" stroke-width="1.5" stroke-linecap="round" stroke-linejoin="round"/>
<path d="M13 16.9999C10.5 16.5 9.5 17.8299 9.5 19.4999V21.9999" stroke="#292D32" stroke-width="1.5" stroke-linecap="round" stroke-linejoin="round"/>
<path fill-rule="evenodd" clip-rule="evenodd" d="M19.7123 15.0096C20.3755 14.9415 20.9858 15.2394 21.5293 15.7829C22.0759 16.3294 22.3773 16.941 22.3115 17.6058C22.2497 18.231 21.8769 18.7159 21.5293 19.0635L17.9969 22.5959C17.8503 22.7495 17.6699 22.8612 17.5218 22.9353C17.366 23.0132 17.1765 23.0839 16.9859 23.114L16.9735 23.116L15.625 23.3056C15.6248 23.3057 15.6253 23.3056 15.625 23.3056C15.1835 23.3685 14.7276 23.2524 14.3986 22.9235C14.0697 22.5946 13.9535 22.1395 14.0164 21.6979C14.0164 21.6977 14.0163 21.6982 14.0164 21.6979L14.208 20.3362C14.2386 20.1425 14.3109 19.9542 14.3885 19.8009C14.466 19.6475 14.5763 19.4752 14.7186 19.3329L18.2586 15.7929C18.6063 15.4452 19.0902 15.0735 19.7123 15.0096ZM19.8656 16.5018C19.7577 16.5128 19.5817 16.5912 19.3193 16.8535L15.7806 20.3922C15.7801 20.3929 15.7745 20.3992 15.7652 20.4127C15.7533 20.43 15.7399 20.4524 15.7269 20.478C15.714 20.5037 15.7038 20.5278 15.6969 20.5477C15.6926 20.5601 15.6905 20.5678 15.6898 20.5708L15.5159 21.8062L16.752 21.6323C16.7552 21.6315 16.7643 21.6292 16.7791 21.6241C16.8005 21.6168 16.8256 21.6063 16.8511 21.5936C16.8768 21.5808 16.8972 21.5684 16.9108 21.5589C16.914 21.5567 16.9163 21.555 16.918 21.5537C16.9215 21.5501 16.9251 21.5464 16.9286 21.5429L20.4686 18.0029C20.731 17.7405 20.8082 17.5655 20.8188 17.4581C20.8255 17.3904 20.822 17.1969 20.4686 16.8435C20.1221 16.497 19.9324 16.4949 19.8656 16.5018Z" fill="#292D32"/>
<path fill-rule="evenodd" clip-rule="evenodd" d="M18.0783 16.1106C18.4774 15.9997 18.8908 16.2334 19.0016 16.6325C19.2312 17.459 19.8732 18.1009 20.6997 18.3305C21.0988 18.4414 21.3325 18.8548 21.2216 19.2539C21.1107 19.653 20.6973 19.8867 20.2982 19.7758C18.9648 19.4054 17.9268 18.3674 17.5564 17.0339C17.4455 16.6348 17.6792 16.2214 18.0783 16.1106Z" fill="#292D32"/>
</svg>
