<svg width="42" height="24" viewBox="0 0 42 24" fill="none" xmlns="http://www.w3.org/2000/svg">
<g clip-path="url(#clip0_38_53)">
<path d="M31.5949 18.655C31.4545 18.5144 31.3756 18.3237 31.3756 18.125C31.3756 17.9262 31.4545 17.7356 31.5949 17.595L36.5649 12.625L4.25 12.4261C4.05109 12.4261 3.86032 12.3471 3.71967 12.2064C3.57902 12.0658 3.5 11.875 3.5 11.6761C3.5 11.4772 3.57902 11.2864 3.71967 11.1458C3.86032 11.0051 4.05109 10.9261 4.25 10.9261L36.5649 11.125L31.5949 6.155C31.4962 6.06333 31.424 5.94672 31.386 5.81747C31.348 5.68823 31.3456 5.55112 31.3789 5.42059C31.4123 5.29007 31.4803 5.17096 31.5756 5.07582C31.671 4.98068 31.7903 4.91303 31.9209 4.88C32.0513 4.84658 32.1883 4.84891 32.3174 4.88675C32.4466 4.92458 32.5632 4.99652 32.6549 5.095L38.9049 11.345C39.0454 11.4856 39.1243 11.6762 39.1243 11.875C39.1243 12.0737 39.0454 12.2644 38.9049 12.405L32.6549 18.655C32.5143 18.7954 32.3237 18.8743 32.1249 18.8743C31.9262 18.8743 31.7356 18.7954 31.5949 18.655Z" fill="white"/>
</g>
<defs>
<clipPath id="clip0_38_53">
<rect width="24" height="42" fill="white" transform="translate(42) rotate(90)"/>
</clipPath>
</defs>
</svg>
